<svg width="1400" height="900" viewBox="0 0 1400 900" fill="none" xmlns="http://www.w3.org/2000/svg">
  <defs>
    <linearGradient id="sky04" x1="0" y1="0" x2="0" y2="1">
      <stop offset="0" stop-color="#0d2237" />
      <stop offset="0.55" stop-color="#1d4a63" />
      <stop offset="1" stop-color="#0f5b6c" />
    </linearGradient>
    <linearGradient id="sea04" x1="0" y1="0" x2="1" y2="1">
      <stop offset="0" stop-color="#0b5e6e" />
      <stop offset="0.55" stop-color="#148090" />
      <stop offset="1" stop-color="#0a4556" />
    </linearGradient>
    <linearGradient id="deck04" x1="0" y1="0" x2="1" y2="0">
      <stop offset="0" stop-color="#c8b59a" />
      <stop offset="1" stop-color="#b39973" />
    </linearGradient>
  </defs>

  <rect width="1400" height="900" fill="url(#sky04)" />
  <rect y="320" width="1400" height="580" fill="url(#sea04)" />

  <rect y="620" width="1400" height="280" fill="url(#deck04)" />
  <rect y="600" width="1400" height="28" fill="#aa916d" />

  <g opacity="0.85">
    <rect x="200" y="520" width="1000" height="8" fill="#e6dfd1" />
    <rect x="240" y="528" width="6" height="96" fill="#e6dfd1" />
    <rect x="320" y="528" width="6" height="96" fill="#e6dfd1" />
    <rect x="400" y="528" width="6" height="96" fill="#e6dfd1" />
    <rect x="480" y="528" width="6" height="96" fill="#e6dfd1" />
    <rect x="560" y="528" width="6" height="96" fill="#e6dfd1" />
    <rect x="640" y="528" width="6" height="96" fill="#e6dfd1" />
    <rect x="720" y="528" width="6" height="96" fill="#e6dfd1" />
    <rect x="800" y="528" width="6" height="96" fill="#e6dfd1" />
    <rect x="880" y="528" width="6" height="96" fill="#e6dfd1" />
    <rect x="960" y="528" width="6" height="96" fill="#e6dfd1" />
    <rect x="1040" y="528" width="6" height="96" fill="#e6dfd1" />
  </g>

  <g opacity="0.9">
    <rect x="360" y="660" width="180" height="100" rx="22" fill="#d9d0c2" />
    <rect x="580" y="655" width="150" height="90" rx="20" fill="#d9d0c2" />
    <rect x="780" y="660" width="200" height="110" rx="22" fill="#d9d0c2" />
    <rect x="420" y="635" width="70" height="30" rx="10" fill="#c5baaa" />
  </g>

  <g opacity="0.4">
    <path d="M320 760C420 740 530 735 640 745" stroke="#d7eef4" stroke-width="2" />
    <path d="M760 770C900 750 1040 750 1180 765" stroke="#d7eef4" stroke-width="2" />
  </g>
</svg>
