<svg width="1400" height="900" viewBox="0 0 1400 900" fill="none" xmlns="http://www.w3.org/2000/svg">
  <defs>
    <linearGradient id="sky06" x1="0" y1="0" x2="0" y2="1">
      <stop offset="0" stop-color="#0e2032" />
      <stop offset="0.55" stop-color="#1b465d" />
      <stop offset="1" stop-color="#0e5a6a" />
    </linearGradient>
    <linearGradient id="pool06" x1="0" y1="0" x2="1" y2="1">
      <stop offset="0" stop-color="#0b6f7f" />
      <stop offset="0.55" stop-color="#1b92a0" />
      <stop offset="1" stop-color="#0b5061" />
    </linearGradient>
    <linearGradient id="deck06" x1="0" y1="0" x2="1" y2="0">
      <stop offset="0" stop-color="#d8c5a5" />
      <stop offset="1" stop-color="#bea583" />
    </linearGradient>
  </defs>

  <rect width="1400" height="900" fill="url(#sky06)" />
  <rect y="360" width="1400" height="540" fill="url(#deck06)" />

  <rect x="200" y="410" width="1000" height="340" rx="80" fill="url(#pool06)" />
  <rect x="270" y="470" width="860" height="220" rx="70" fill="#0f5f6f" opacity="0.55" />

  <g opacity="0.85">
    <rect x="260" y="770" width="160" height="60" rx="18" fill="#d7cbb8" />
    <rect x="450" y="770" width="160" height="60" rx="18" fill="#d7cbb8" />
    <rect x="640" y="770" width="160" height="60" rx="18" fill="#d7cbb8" />
    <rect x="830" y="770" width="160" height="60" rx="18" fill="#d7cbb8" />
    <rect x="1020" y="770" width="160" height="60" rx="18" fill="#d7cbb8" />
  </g>

  <g>
    <rect x="170" y="300" width="20" height="160" fill="#8b7a61" />
    <path d="M180 230C240 250 270 300 260 340H100C100 290 130 250 180 230Z" fill="#2f6f54" />
    <rect x="1210" y="300" width="20" height="160" fill="#8b7a61" />
    <path d="M1220 230C1280 250 1310 300 1300 340H1140C1140 290 1170 250 1220 230Z" fill="#2f6f54" />
  </g>

  <g opacity="0.35">
    <path d="M360 580C520 560 700 560 880 575" stroke="#d7eef4" stroke-width="2" />
    <path d="M460 620C600 600 780 600 960 615" stroke="#d7eef4" stroke-width="2" />
  </g>
</svg>
