<svg width="1400" height="900" viewBox="0 0 1400 900" fill="none" xmlns="http://www.w3.org/2000/svg">
  <defs>
    <linearGradient id="sky05" x1="0" y1="0" x2="0" y2="1">
      <stop offset="0" stop-color="#0e2235" />
      <stop offset="0.55" stop-color="#1a4a61" />
      <stop offset="1" stop-color="#0e5c6c" />
    </linearGradient>
    <linearGradient id="sea05" x1="0" y1="0" x2="1" y2="1">
      <stop offset="0" stop-color="#0b5f70" />
      <stop offset="0.55" stop-color="#168595" />
      <stop offset="1" stop-color="#0a4657" />
    </linearGradient>
    <linearGradient id="sand05" x1="0" y1="0" x2="1" y2="1">
      <stop offset="0" stop-color="#e0cda8" />
      <stop offset="1" stop-color="#c8b18a" />
    </linearGradient>
  </defs>

  <rect width="1400" height="900" fill="url(#sky05)" />
  <rect y="310" width="1400" height="590" fill="url(#sea05)" />

  <path
    d="M0 560C150 530 340 530 520 570C690 610 880 670 1060 650C1210 635 1320 600 1400 575V900H0V560Z"
    fill="url(#sand05)"
  />

  <g opacity="0.9">
    <rect x="240" y="600" width="120" height="70" rx="18" fill="#d9cbb7" />
    <rect x="390" y="620" width="140" height="80" rx="18" fill="#d2c4af" />
    <rect x="1050" y="590" width="180" height="100" rx="20" fill="#d2c4af" />
  </g>

  <g>
    <rect x="640" y="540" width="20" height="160" fill="#9a8a72" />
    <path d="M650 450C700 470 720 520 710 560H590C590 510 610 470 650 450Z" fill="#e1c48c" />
    <path d="M650 450C680 470 690 500 685 540H615C615 500 630 470 650 450Z" fill="#d5b67a" />
  </g>

  <g opacity="0.75">
    <circle cx="890" cy="640" r="20" fill="#e0d6c6" />
    <rect x="870" y="655" width="40" height="12" rx="6" fill="#d2c4af" />
    <rect x="860" y="670" width="60" height="10" rx="5" fill="#c6b7a0" />
  </g>

  <g opacity="0.35">
    <path d="M220 760C350 740 500 740 640 755" stroke="#d7eef4" stroke-width="2" />
    <path d="M760 780C900 760 1040 760 1180 775" stroke="#d7eef4" stroke-width="2" />
  </g>
</svg>
