<svg width="1400" height="900" viewBox="0 0 1400 900" fill="none" xmlns="http://www.w3.org/2000/svg">
  <defs>
    <linearGradient id="wall03" x1="0" y1="0" x2="1" y2="1">
      <stop offset="0" stop-color="#f5f0e8" />
      <stop offset="1" stop-color="#e5ddd0" />
    </linearGradient>
    <linearGradient id="floor03" x1="0" y1="0" x2="1" y2="0">
      <stop offset="0" stop-color="#c8b59a" />
      <stop offset="1" stop-color="#b59f7f" />
    </linearGradient>
    <linearGradient id="window03" x1="0" y1="0" x2="0" y2="1">
      <stop offset="0" stop-color="#9cc7dd" stop-opacity="0.95" />
      <stop offset="1" stop-color="#5e99b5" stop-opacity="0.8" />
    </linearGradient>
  </defs>

  <rect width="1400" height="900" fill="url(#wall03)" />
  <rect y="540" width="1400" height="360" fill="url(#floor03)" />

  <rect x="150" y="140" width="480" height="330" fill="url(#window03)" />
  <rect x="660" y="140" width="600" height="330" fill="url(#window03)" />
  <rect x="150" y="140" width="1110" height="330" fill="none" stroke="#c9dbe4" stroke-width="6" />

  <g opacity="0.75">
    <rect x="230" y="510" width="520" height="150" rx="30" fill="#d8d0c4" />
    <rect x="780" y="520" width="380" height="130" rx="28" fill="#d2c8ba" />
    <rect x="270" y="480" width="140" height="60" rx="18" fill="#c4b8aa" />
    <rect x="470" y="480" width="140" height="60" rx="18" fill="#c4b8aa" />
  </g>

  <rect x="520" y="630" width="360" height="26" rx="13" fill="#b59f7f" opacity="0.65" />
  <rect x="560" y="650" width="280" height="22" rx="11" fill="#a89172" opacity="0.65" />

  <g opacity="0.85">
    <rect x="1020" y="610" width="110" height="120" rx="14" fill="#ece3d4" />
    <rect x="1040" y="595" width="70" height="20" rx="8" fill="#d0c6b8" />
    <rect x="1000" y="720" width="150" height="20" rx="8" fill="#c2b39c" />
  </g>

  <g opacity="0.7">
    <rect x="260" y="300" width="90" height="120" fill="#f7f2ea" />
    <rect x="400" y="290" width="90" height="130" fill="#f7f2ea" />
    <rect x="860" y="280" width="110" height="150" fill="#f7f2ea" />
  </g>

  <circle cx="1120" cy="250" r="38" fill="#e1c48c" opacity="0.6" />
  <circle cx="1180" cy="250" r="28" fill="#e1c48c" opacity="0.4" />
</svg>
